<svg width="33" height="33" viewBox="0 0 33 33" fill="none" xmlns="http://www.w3.org/2000/svg">
<path d="M25.9 7.04667C24.6774 5.81214 23.2214 4.83329 21.6167 4.16715C20.012 3.50101 18.2908 3.16091 16.5533 3.16667C9.27333 3.16667 3.34 9.1 3.34 16.38C3.34 18.7133 3.95333 20.98 5.1 22.98L3.23333 29.8333L10.2333 27.9933C12.1667 29.0467 14.34 29.6067 16.5533 29.6067C23.8333 29.6067 29.7667 23.6733 29.7667 16.3933C29.7667 12.86 28.3933 9.54 25.9 7.04667ZM16.5533 27.3667C14.58 27.3667 12.6467 26.8333 10.9533 25.8333L10.5533 25.5933L6.39333 26.6867L7.5 22.6333L7.23333 22.22C6.13673 20.4694 5.55456 18.4457 5.55333 16.38C5.55333 10.3267 10.4867 5.39333 16.54 5.39333C19.4733 5.39333 22.2333 6.54 24.3 8.62C25.3235 9.63849 26.1346 10.8501 26.6862 12.1844C27.2378 13.5188 27.5189 14.9494 27.5133 16.3933C27.54 22.4467 22.6067 27.3667 16.5533 27.3667ZM22.58 19.1533C22.2467 18.9933 20.62 18.1933 20.3267 18.0733C20.02 17.9667 19.8067 17.9133 19.58 18.2333C19.3533 18.5667 18.7267 19.3133 18.54 19.5267C18.3533 19.7533 18.1533 19.78 17.82 19.6067C17.4867 19.4467 16.42 19.0867 15.1667 17.9667C14.18 17.0867 13.5267 16.0067 13.3267 15.6733C13.14 15.34 13.3 15.1667 13.4733 14.9933C13.62 14.8467 13.8067 14.6067 13.9667 14.42C14.1267 14.2333 14.1933 14.0867 14.3 13.8733C14.4067 13.6467 14.3533 13.46 14.2733 13.3C14.1933 13.14 13.5267 11.5133 13.26 10.8467C12.9933 10.2067 12.7133 10.2867 12.5133 10.2733H11.8733C11.6467 10.2733 11.3 10.3533 10.9933 10.6867C10.7 11.02 9.84666 11.82 9.84666 13.4467C9.84666 15.0733 11.0333 16.6467 11.1933 16.86C11.3533 17.0867 13.5267 20.42 16.8333 21.8467C17.62 22.1933 18.2333 22.3933 18.7133 22.54C19.5 22.7933 20.22 22.7533 20.7933 22.6733C21.4333 22.58 22.7533 21.8733 23.02 21.1C23.3 20.3267 23.3 19.6733 23.2067 19.5267C23.1133 19.38 22.9133 19.3133 22.58 19.1533Z" fill="#02174C"/>
</svg>
